<svg id="Layer_1" data-name="Layer 1" xmlns="http://www.w3.org/2000/svg" viewBox="0 0 87.4 87.4"><defs><style>.cls-1,.cls-5{fill:none;stroke:#002c48;}.cls-1{stroke-miterlimit:10;stroke-width:3px;}.cls-2{fill:#526d85;}.cls-3{fill:#002c48;}.cls-4{fill:#fff;}.cls-5{stroke-linecap:round;stroke-linejoin:round;stroke-width:1.01px;}.cls-6{fill:#e46603;}</style></defs><title>Artboard 1</title><circle class="cls-1" cx="43.7" cy="43.69" r="42.19"/><path class="cls-2" d="M43.7,4.66A39,39,0,0,0,16.1,71.29l55.2-55.2A38.91,38.91,0,0,0,43.7,4.66"/><path class="cls-3" d="M16.1,71.29a39,39,0,0,0,55.2-55.2Z"/><path class="cls-4" d="M62.68,58.64V19.51A2.47,2.47,0,0,0,60.21,17H53.91a2.47,2.47,0,0,0-2.47,2.47V58.64a8.71,8.71,0,1,0,11.25,0"/><line class="cls-5" x1="51.43" y1="27.84" x2="53.92" y2="27.84"/><line class="cls-5" x1="51.43" y1="30.64" x2="53.92" y2="30.64"/><line class="cls-5" x1="51.43" y1="33.43" x2="53.92" y2="33.43"/><line class="cls-5" x1="51.43" y1="36.22" x2="53.92" y2="36.22"/><line class="cls-5" x1="51.43" y1="39.01" x2="53.92" y2="39.01"/><line class="cls-5" x1="51.43" y1="41.8" x2="53.92" y2="41.8"/><line class="cls-5" x1="51.43" y1="44.59" x2="53.92" y2="44.59"/><line class="cls-5" x1="51.43" y1="47.39" x2="53.92" y2="47.39"/><line class="cls-5" x1="51.43" y1="50.18" x2="53.92" y2="50.18"/><line class="cls-5" x1="51.43" y1="52.97" x2="53.92" y2="52.97"/><line class="cls-5" x1="51.43" y1="55.76" x2="53.92" y2="55.76"/><path class="cls-6" d="M62.68,65.28a5.62,5.62,0,1,1-5.62-5.62,5.62,5.62,0,0,1,5.62,5.63"/><rect class="cls-6" x="55.85" y="30.64" width="2.43" height="37.37"/><path class="cls-4" d="M46.71,41.6a12.54,12.54,0,1,1-25.08,0c0-6.92,12.54-28.89,12.54-28.89s12.54,22,12.54,28.89"/><path class="cls-6" d="M25.77,38.45A10,10,0,0,1,25.89,37a8.78,8.78,0,1,0,14,10.57,10,10,0,0,1-14.14-9.09"/></svg>